<svg xmlns="http://www.w3.org/2000/svg" xmlns:xlink="http://www.w3.org/1999/xlink" xmlns:sketch="http://www.bohemiancoding.com/sketch/ns" width="673px" height="96px" viewBox="0 0 673 96" version="1.1" id="logo"><title>Midnight Breakfast</title><defs/><g sketch:type="MSPage"><path d="M9.736 58.2 L9.736 13.1 L27.688 74.1 L28.072 74.1 L44.872 13.1 L44.872 61.5 C44.872 67.8 43.6 70.5 39.6 72.8 L39.592 73 L63.688 73 L63.688 72.8 C59.656 70.5 58.3 67.8 58.3 61.5 L58.312 17.1 C58.312 10.8 59 8.3 63.1 6 L63.112 5.8 L44.2 5.8 L33.256 46.9 L21.64 5.8 L2.152 5.8 L2.152 6 C6.184 8.3 6.9 10.8 6.9 17.1 L6.856 60 C6.856 67 4.7 70.6 0.7 72.8 L0.712 73 L16.456 73 L16.456 72.8 C11.944 70.6 9.7 67.2 9.7 58.2 Z M67.816 11.1 C67.816 15.3 71.1 18.7 75.3 18.7 C79.528 18.7 82.9 15.3 82.9 11.1 C82.888 7 79.5 3.6 75.3 3.6 C71.08 3.6 67.8 7 67.8 11.1 Z M81.64 25.8 L65.032 25.8 L65.032 26 C68.2 28 69.1 29.8 69.1 36.4 L69.064 63.1 C69.064 69.4 68.6 70.8 65.5 72.8 L65.512 73 L85.192 73 L85.192 72.8 C82.12 70.8 81.6 69.4 81.6 63.1 L81.64 25.8 Z M115.144 35.1 C113.608 28.1 109.7 24.8 103.7 24.8 C94.984 24.8 87.9 34.4 87.9 49.7 C87.88 64.9 94.7 74 103 74 C109.288 74 113.6 69.9 115.1 62.6 L115.144 73 L131.272 73 L131.272 72.8 C128.104 70.8 127.6 68.9 127.6 62.5 L127.624 1.1 L111.112 1.1 L111.112 1.3 C114.184 3.4 115.1 5 115.1 11.7 L115.144 35.1 Z M108.04 68.7 C103.528 68.7 101.3 61.5 101.3 49.6 C101.32 36.7 103.6 29.1 108.1 29.1 C111.592 29.1 115.1 34.1 115.1 43.9 L115.144 54.7 C115.144 63.8 111.6 68.7 108 68.7 Z M133.192 25.8 L133.192 26 C136.36 28 137.2 29.8 137.2 36.4 L137.224 63.1 C137.224 69.4 136.7 70.8 133.7 72.8 L133.672 73 L153.352 73 L153.352 72.8 C150.28 70.8 149.8 69.4 149.8 63.1 L149.8 42.6 C149.8 34.9 152.8 31.6 156 31.6 C159.688 31.6 160.8 34.3 160.8 38 L160.84 63.1 C160.84 69.4 160.4 70.8 157.3 72.8 L157.288 73 L177.064 73 L177.064 72.8 C173.992 70.8 173.4 69.4 173.4 63.1 L173.416 37.8 C173.416 29.7 169.5 24.8 162.3 24.8 C156.232 24.8 151.6 28.7 149.8 35.8 L149.8 25.8 L133.192 25.8 Z M181.576 11.1 C181.576 15.3 184.8 18.7 189.1 18.7 C193.288 18.7 196.6 15.3 196.6 11.1 C196.648 7 193.3 3.6 189.1 3.6 C184.84 3.6 181.6 7 181.6 11.1 Z M195.4 25.8 L178.792 25.8 L178.792 26 C181.96 28 182.8 29.8 182.8 36.4 L182.824 63.1 C182.824 69.4 182.3 70.8 179.3 72.8 L179.272 73 L198.952 73 L198.952 72.8 C195.88 70.8 195.4 69.4 195.4 63.1 L195.4 25.8 Z M242.632 76.8 C242.632 68.1 237.1 63.1 227 63.1 L213.928 63.1 C210.952 63.1 208.7 61.9 208.7 59.2 C208.744 56.9 210.6 55.3 212.6 54.5 C214.888 55.4 217.7 56 220.8 56 C231.88 56 238.1 49.2 238.1 40.5 C238.12 35 235.8 30.4 231.4 27.7 C232.264 25.3 233.8 23.8 236 23.8 C238.312 23.8 239.6 25.4 239.6 27.5 C239.56 28.2 239.5 28.7 239.3 29.4 L239.368 29.6 C241.96 28.4 244.4 26.2 244.4 23.1 C244.36 20.1 242.4 17.1 238.1 17.1 C234.088 17.1 230.9 21.1 230.1 26.9 C227.56 25.6 224.4 24.8 220.8 24.8 C209.8 24.8 203.6 31.6 203.6 40.5 C203.56 46.2 206.2 51.1 211.2 53.8 C206.824 55.3 202.2 59.4 202.2 64.8 C202.216 70.9 206.6 74.1 211.2 74.9 C204.616 75.6 200.5 79.1 200.5 84 C200.488 92.2 210.7 95.2 219.6 95.2 C231.88 95.2 242.6 88.8 242.6 76.8 Z M220.84 26.5 C224.392 26.5 225.9 32 225.9 40.5 C225.928 48.8 224.4 54.4 220.8 54.4 C217.288 54.4 215.8 48.8 215.8 40.5 C215.848 32 217.3 26.5 220.8 26.5 Z M220.36 93.4 C213.352 93.4 208.3 90 208.3 83.5 C208.264 77.9 211.6 75.2 216.3 75.2 L224.296 75.2 C231.112 75.2 234.1 77.4 234.1 82.9 C234.088 89.5 227.8 93.4 220.4 93.4 Z M243.208 1.1 L243.208 1.3 C246.472 3.4 247.2 5 247.2 11.7 L247.24 63.1 C247.24 69.4 246.8 70.8 243.8 72.8 L243.784 73 L263.368 73 L263.368 72.8 C260.392 70.8 259.9 69.4 259.9 63.1 L259.912 42.6 C259.912 34.9 262.9 31.6 266.2 31.6 C269.704 31.6 271 34.3 271 38 L270.952 63.1 C270.952 69.4 270.5 70.8 267.4 72.8 L267.4 73 L287.08 73 L287.08 72.8 C284.008 70.8 283.5 69.4 283.5 63.1 L283.528 37.8 C283.528 29.7 279.5 24.8 272.3 24.8 C266.248 24.8 261.7 28.7 259.9 35.8 L259.912 1.1 L243.208 1.1 Z M315.016 57.6 C314.248 64.3 312.1 67.4 309 67.4 C305.992 67.4 304.7 65.1 304.7 59.8 L304.744 28.3 L314.344 28.3 L314.824 25.8 L304.744 25.8 L304.744 9.3 L303.88 9.3 C301.576 18.9 295.5 25.3 288.1 27.3 L288.136 28.3 L292.264 28.3 L292.168 59.4 C292.168 69.5 296.5 74 303.6 74 C311.656 74 315.2 67.5 315.9 57.7 L315.016 57.6 Z M356.584 73 C370.696 73 381.1 68.2 381.1 55.1 C381.064 43.8 370.3 38.7 361 38.2 C369.928 37.5 377.8 32.1 377.8 22.8 C377.8 10.8 368 5.8 355.1 5.8 L332.968 5.8 L332.968 6 C337 8.3 337.7 10.8 337.7 17.1 L337.672 61.7 C337.672 68 337 70.5 333 72.8 L332.968 73 L356.584 73 Z M351.304 37.6 L351.304 8 L353.128 8 C360.328 8 364.8 13.5 364.8 22.9 C364.84 32.3 360.3 37.6 353.1 37.6 L351.304 37.6 Z M351.304 70.8 L351.304 39.7 L354.28 39.7 C362.536 39.7 367.5 45.2 367.5 55.1 C367.528 65.4 362.5 70.8 354.3 70.8 L351.304 70.8 Z M408.616 41.2 C409 41.7 410.2 42.2 411.9 42.2 C416.2 42.2 419.7 38.8 419.7 33.4 C419.656 28.5 416.3 24.9 411.3 24.9 C405.448 24.9 401.8 31 400.4 37.9 L400.36 25.8 L383.752 25.8 L383.752 26 C386.92 28 387.8 29.8 387.8 36.4 L387.784 63.1 C387.784 69.4 387.3 70.8 384.2 72.8 L384.232 73 L404.872 73 L404.872 72.8 C401.512 70.9 400.4 69.7 400.4 63.4 L400.36 45.7 C400.36 37.7 403.5 32.7 407.1 32.7 C409.96 32.7 411.3 34.4 411.3 37 C411.304 39.2 410 40.7 408.6 41.2 Z M440.008 24.8 C429.832 24.8 420.7 34.7 420.7 49.5 C420.712 64.9 429.4 74 439.7 74 C449.512 74 455 67.3 456.3 56.8 L455.752 56.7 C453.544 64.3 449.5 67.2 444.9 67.2 C437.512 67.2 433.7 59.6 433.7 47.4 L456.616 47.4 C456.616 34.4 451.3 24.8 440 24.8 Z M433.768 45.3 C434.056 34.6 436.2 26.6 439.9 26.6 C444.424 26.6 444.8 35 444.8 45.3 L433.768 45.3 Z M500.584 68.7 C500.008 69.2 499.3 69.4 498.5 69.4 C495.976 69.4 494.7 67.5 494.7 64 C494.728 56.2 494.9 47.3 494.9 39.4 C494.92 28.5 488.2 24.8 477.8 24.8 C469.192 24.8 462.4 29 462.4 36.1 C462.376 40.9 465.5 43.6 470.1 43.6 C473.512 43.6 476.5 41.8 477.4 38.6 C476.968 38.8 476.5 38.9 476.1 38.9 C473.704 38.9 472.4 36.9 472.4 33.1 C472.36 29.3 474.2 26.6 477.2 26.6 C480.52 26.6 482.2 29.4 482.2 33.7 L482.248 45.8 L477.736 47.1 C468.904 49.5 460.1 52.6 460.1 62.3 C460.072 69.7 465 73.7 471 73.7 C477.064 73.7 481.3 70 482.4 64.3 L482.632 65.9 C483.4 71 486.7 73.8 491.8 73.8 C496.072 73.8 499.2 71.7 500.6 69 L500.584 68.7 Z M482.248 47.7 L482.248 58.3 C482.152 64.4 480 67.6 476.8 67.6 C473.8 67.6 472.2 64.6 472.2 59.9 C472.168 53.1 475.4 50 480 48.4 L482.248 47.7 Z M516.616 46.1 L516.616 1.1 L499.912 1.1 L499.912 1.3 C503.176 3.4 503.9 5 503.9 11.7 L503.944 63.1 C503.944 69.4 503.5 70.8 500.5 72.8 L500.488 73 L520.072 73 L520.072 72.8 C517.096 70.8 516.6 69.4 516.6 63.1 L516.616 48.1 L517.288 48.1 C518.44 48.1 519 48.6 519.7 50.3 L526.504 66.2 C527.464 68.6 528.1 70.9 528.2 73 L545.992 73 L545.992 72.8 C542.728 70.5 540.4 67.8 538.1 62.5 L528.808 41.1 L533.704 33.8 C536.776 29.6 540.2 27.4 545 26 L545.032 25.8 L528.808 25.8 L528.808 26 C530.824 26.8 532 28.5 532 30.5 C531.976 31.7 531.4 33.2 530.2 34.7 L524.008 43.3 C522.28 45.7 520.9 46.1 518.8 46.1 L516.616 46.1 Z M549.64 63.4 C549.64 69.4 549.2 70.8 546.1 72.8 L546.088 73 L566.728 73 L566.728 72.8 C563.368 70.9 562.2 70 562.2 63.5 L562.216 28.3 L569.128 28.3 L569.608 25.8 L562.216 25.8 L562.216 12.8 C562.216 6.8 563.7 2.2 567.5 2.2 C569.992 2.2 571.1 4 571.1 7.1 C571.144 11.5 568.9 13.1 566.9 13.6 C567.88 15.4 570.2 16.6 572.7 16.6 C576.712 16.6 579.6 13.8 579.6 9.4 C579.592 3.3 574.1 0.6 567.9 0.6 C557.896 0.6 549.6 7.1 549.6 20.1 L549.64 25.3 L544.552 27.4 L544.552 28.3 L549.64 28.3 L549.64 63.4 Z M611.08 68.7 C610.504 69.2 609.8 69.4 609 69.4 C606.472 69.4 605.2 67.5 605.2 64 C605.224 56.2 605.4 47.3 605.4 39.4 C605.416 28.5 598.7 24.8 588.3 24.8 C579.688 24.8 572.9 29 572.9 36.1 C572.872 40.9 576 43.6 580.6 43.6 C584.008 43.6 587 41.8 587.8 38.6 C587.464 38.8 587 38.9 586.6 38.9 C584.2 38.9 582.9 36.9 582.9 33.1 C582.856 29.3 584.7 26.6 587.7 26.6 C591.016 26.6 592.7 29.4 592.7 33.7 L592.744 45.8 L588.232 47.1 C579.4 49.5 570.6 52.6 570.6 62.3 C570.568 69.7 575.5 73.7 581.5 73.7 C587.56 73.7 591.8 70 592.9 64.3 L593.128 65.9 C593.896 71 597.2 73.8 602.2 73.8 C606.568 73.8 609.7 71.7 611.1 69 L611.08 68.7 Z M592.744 47.7 L592.744 58.3 C592.648 64.4 590.5 67.6 587.3 67.6 C584.296 67.6 582.7 64.6 582.7 59.9 C582.664 53.1 585.9 50 590.5 48.4 L592.744 47.7 Z M626.536 26.6 C632.104 26.6 636.7 32.5 640 40.9 L640.264 40.9 L640.264 24.8 C638.824 26.2 637.8 27.1 636.1 27.1 C633.352 27.1 631 24.8 626.2 24.8 C618.952 24.8 612.4 30.5 612.4 39.2 C612.424 47.5 616.7 51.3 625.5 55.3 C631.24 58.1 633.9 59.9 633.9 64.9 C633.928 69.2 631.6 72.2 627.4 72.2 C621.832 72.2 616.3 65.6 612.4 55.5 L612.136 55.5 L613 74 C614.056 72.8 615.5 71.8 617.1 71.8 C619.816 71.8 622.4 74 627.7 74 C636.04 74 643 68.3 643 58.7 C643.048 50.7 638.6 46.2 629.6 42.2 C622.6 39.1 620.8 36.9 620.8 32.9 C620.776 29.2 623.1 26.6 626.5 26.6 Z M672.04 57.6 C671.272 64.3 669.2 67.4 666 67.4 C663.016 67.4 661.8 65.1 661.8 59.8 L661.768 28.3 L671.368 28.3 L671.848 25.8 L661.768 25.8 L661.768 9.3 L660.904 9.3 C658.6 18.9 652.6 25.3 645.2 27.3 L645.16 28.3 L649.288 28.3 L649.192 59.4 C649.192 69.5 653.5 74 660.6 74 C668.68 74 672.2 67.5 672.9 57.7 L672.04 57.6 Z" sketch:type="MSShapeGroup" id="wordmark" /></g></svg>